<?xml version="1.0" encoding="UTF-8"?><svg xmlns="http://www.w3.org/2000/svg" xmlns:xlink="http://www.w3.org/1999/xlink" width="30" zoomAndPan="magnify" viewBox="0 0 30 30.000001" height="30.000001" preserveAspectRatio="xMidYMid meet" version="1.0"><defs><clipPath id="clip-0"><path d="M 6.1875 2.105469 L 23.605469 2.105469 L 23.605469 26.78125 L 6.1875 26.78125 Z M 6.1875 2.105469 " clip-rule="nonzero"/></clipPath></defs><g clip-path="url(#clip-0)"><path fill="rgb(76.078796%, 64.709473%, 100%)" d="M 22.128906 15.78125 C 23.0625 14.382812 23.609375 12.703125 23.609375 10.890625 C 23.609375 6.050781 19.707031 2.125 14.898438 2.125 C 10.085938 2.125 6.1875 6.050781 6.1875 10.890625 C 6.1875 12.703125 6.734375 14.382812 7.667969 15.78125 L 14.898438 26.761719 L 22.128906 15.78125 " fill-opacity="1" fill-rule="nonzero"/></g><path fill="rgb(92.549133%, 89.019775%, 100%)" d="M 21.136719 10.890625 C 21.136719 14.355469 18.34375 17.167969 14.898438 17.167969 C 11.453125 17.167969 8.660156 14.355469 8.660156 10.890625 C 8.660156 7.421875 11.453125 4.613281 14.898438 4.613281 C 18.34375 4.613281 21.136719 7.421875 21.136719 10.890625 " fill-opacity="1" fill-rule="nonzero"/></svg>